<?xml version="1.0" encoding="utf-8"?><svg version="1.1" id="Layer_1" xmlns="http://www.w3.org/2000/svg" xmlns:xlink="http://www.w3.org/1999/xlink" x="0px" y="0px" width="24" height="96" viewBox="0 0 24 96" style="enable-background:new 0 0 24 96;" xml:space="preserve"><style type="text/css">.st0{fill:#606065;} .st1{fill:#2D2D32;} .st2{fill:#FFFFFF;}</style><g id="Icons"><path class="st0" d="M17.5,11h-1V6c0-2.8-2.2-5-5-5s-5,2.2-5,5v1h1V6c0-2.2,1.8-4,4-4s4,1.8,4,4v5h-10c-0.6,0-1,0.4-1,1v10
		c0,0.6,0.4,1,1,1h12c0.6,0,1-0.4,1-1V12C18.5,11.4,18.1,11,17.5,11z M17.5,22h-12V12h12V22z"/><rect x="8.5" y="15" class="st0" width="6" height="1"/><rect x="8.5" y="18" class="st0" width="6" height="1"/></g><g id="Icons_1_"><path class="st1" d="M17.5,35h-1v-5c0-2.8-2.2-5-5-5s-5,2.2-5,5v1h1v-1c0-2.2,1.8-4,4-4s4,1.8,4,4v5h-10c-0.6,0-1,0.4-1,1v10
		c0,0.6,0.4,1,1,1h12c0.6,0,1-0.4,1-1V36C18.5,35.4,18.1,35,17.5,35z M17.5,46h-12V36h12V46z"/><rect x="8.5" y="39" class="st1" width="6" height="1"/><rect x="8.5" y="42" class="st1" width="6" height="1"/></g><g id="Icons_2_"><path class="st2" d="M17.5,59h-1v-5c0-2.8-2.2-5-5-5s-5,2.2-5,5v1h1v-1c0-2.2,1.8-4,4-4s4,1.8,4,4v5h-10c-0.6,0-1,0.4-1,1v10
		c0,0.6,0.4,1,1,1h12c0.6,0,1-0.4,1-1V60C18.5,59.4,18.1,59,17.5,59z M17.5,70h-12V60h12V70z"/><rect x="8.5" y="63" class="st2" width="6" height="1"/><rect x="8.5" y="66" class="st2" width="6" height="1"/></g></svg>